<?xml version="1.0" encoding="iso-8859-1"?>
<!-- Generator: Adobe Illustrator 19.0.0, SVG Export Plug-In . SVG Version: 6.00 Build 0)  -->
<svg version="1.1" id="Layer_1" xmlns="http://www.w3.org/2000/svg" xmlns:xlink="http://www.w3.org/1999/xlink" x="0px" y="0px"
	 viewBox="0 0 512 512" style="enable-background:new 0 0 512 512;" xml:space="preserve">
<g>
	<path style="fill:#78AAC3;" d="M97.103,432.552H17.655V114.759h79.448h141.241V97.103H17.655C7.904,97.103,0,105.007,0,114.759
		v317.793c0,9.751,7.904,17.655,17.655,17.655h220.69v-17.655H97.103z"/>
	<path style="fill:#78AAC3;" d="M494.345,97.103H370.759v17.655h123.586v317.793H300.138h-26.483v17.655h220.69
		c9.751,0,17.655-7.904,17.655-17.655V114.759C512,105.007,504.096,97.103,494.345,97.103z"/>
	<polygon style="fill:#78AAC3;" points="300.138,114.759 335.448,114.759 335.448,97.103 273.655,97.103 273.655,114.759 	"/>
</g>
<g>
	<path style="fill:#FFFFFF;" d="M129.827,300.138h13.999l-31.304-31.304c-2.179,2.529-4.156,5.236-5.886,8.109L129.827,300.138z"/>
	<path style="fill:#FFFFFF;" d="M150.069,293.897v-13.999l-23.193-23.19c-2.873,1.731-5.58,3.708-8.109,5.886L150.069,293.897z"/>
	<path style="fill:#FFFFFF;" d="M102.488,285.278c-1.894,4.687-3.198,9.671-3.83,14.86h18.688L102.488,285.278z"/>
	<path style="fill:#FFFFFF;" d="M238.345,114.759H97.103v75.034h57.379c2.44,0,4.414,1.974,4.414,4.414v45.283
		c36.654,0.885,66.207,30.953,66.207,67.82c0,37.422-30.444,67.862-67.862,67.862c-26.098,0-48.789-14.817-60.138-36.473v93.853
		h141.241h8.828V114.759H238.345z"/>
	<path style="fill:#FFFFFF;" d="M150.069,239.83v-41.209H97.103v77.301C107.4,256.276,127.028,242.262,150.069,239.83z"/>
	<path style="fill:#FFFFFF;" d="M158.897,304.552c0,0.289-0.03,0.578-0.087,0.863c-0.029,0.143-0.081,0.276-0.122,0.414
		c-0.041,0.137-0.072,0.275-0.127,0.407c-0.072,0.174-0.168,0.333-0.262,0.495c-0.05,0.087-0.086,0.179-0.142,0.263
		c-0.324,0.488-0.744,0.907-1.231,1.231c-0.084,0.056-0.175,0.093-0.263,0.142c-0.162,0.093-0.321,0.189-0.495,0.262
		c-0.132,0.055-0.271,0.085-0.407,0.127c-0.138,0.042-0.27,0.094-0.414,0.122c-0.285,0.056-0.574,0.087-0.863,0.087H98.249
		c0.882,31.787,26.996,57.379,58.993,57.379c32.552,0,59.034-26.483,59.034-59.034c0-31.997-25.592-58.111-57.379-58.993V304.552z"
		/>
	<path style="fill:#FFFFFF;" d="M150.069,267.415v-18.688c-5.19,0.632-10.173,1.937-14.86,3.83L150.069,267.415z"/>
	<path style="fill:#FFFFFF;" d="M441.379,185.379c4.875,0,8.828,3.953,8.828,8.828s-3.953,8.828-8.828,8.828h-70.621V256h8.828
		c4.875,0,8.828,3.953,8.828,8.828s-3.953,8.828-8.828,8.828h-8.828v17.655h70.621c4.875,0,8.828,3.953,8.828,8.828
		s-3.953,8.828-8.828,8.828h-70.621v17.655l-17.655,44.138l-17.655-44.138v-17.655h-17.655c-4.875,0-8.828-3.953-8.828-8.828
		s3.953-8.828,8.828-8.828h17.655v-17.655h-17.655c-4.875,0-8.828-3.953-8.828-8.828s3.953-8.828,8.828-8.828h17.655v-17.655
		h-17.655c-4.875,0-8.828-3.953-8.828-8.828s3.953-8.828,8.828-8.828h17.655v-17.655h-17.655c-4.875,0-8.828-3.953-8.828-8.828
		s3.953-8.828,8.828-8.828h17.655v-17.656h-17.655c-4.875,0-8.828-3.953-8.828-8.828c0-4.875,3.953-8.828,8.828-8.828h17.655
		v-35.309h-35.31v317.793h194.207V114.759H370.759v70.621H441.379z M388.414,229.517c0-4.875,3.953-8.828,8.828-8.828h44.138
		c4.875,0,8.828,3.953,8.828,8.828s-3.953,8.828-8.828,8.828h-44.138C392.366,238.345,388.414,234.392,388.414,229.517z
		 M441.379,273.655h-26.483c-4.875,0-8.828-3.953-8.828-8.828s3.953-8.828,8.828-8.828h26.483c4.875,0,8.828,3.953,8.828,8.828
		S446.254,273.655,441.379,273.655z M441.379,344.276h-44.138c-4.875,0-8.828-3.953-8.828-8.828s3.953-8.828,8.828-8.828h44.138
		c4.875,0,8.828,3.953,8.828,8.828S446.254,344.276,441.379,344.276z M397.241,150.069h44.138c4.875,0,8.828,3.953,8.828,8.828
		c0,4.875-3.953,8.828-8.828,8.828h-44.138c-4.875,0-8.828-3.953-8.828-8.828C388.414,154.022,392.366,150.069,397.241,150.069z"/>
</g>
<g>
	<polygon style="fill:#E4EAF6;" points="273.655,114.759 264.828,114.759 264.828,432.552 273.655,432.552 300.138,432.552 
		300.138,114.759 	"/>
	<path style="fill:#E4EAF6;" d="M89.421,308.966H44.138c-2.44,0-4.414-1.974-4.414-4.414V194.207c0-2.44,1.974-4.414,4.414-4.414
		h52.966v-75.034H17.655v317.793h79.448v-93.853C92.422,329.766,89.679,319.671,89.421,308.966z"/>
	<path style="fill:#E4EAF6;" d="M97.103,275.922v-77.301H48.552v101.517h41.209C90.675,291.478,93.234,283.305,97.103,275.922z"/>
</g>
<polygon style="fill:#BEC8DC;" points="256,114.759 247.172,114.759 247.172,432.552 256,432.552 264.828,432.552 264.828,114.759 
	"/>
<path style="fill:#707384;" d="M39.724,194.207v110.345c0,2.44,1.974,4.414,4.414,4.414h45.283c0.258,10.706,3,20.8,7.682,29.733
	c11.349,21.656,34.04,36.473,60.138,36.473c37.418,0,67.862-30.44,67.862-67.862c0-36.867-29.553-66.935-66.207-67.82v-45.283
	c0-2.44-1.974-4.414-4.414-4.414H97.103H44.138C41.698,189.793,39.724,191.767,39.724,194.207z M150.069,267.415l-14.86-14.858
	c4.687-1.894,9.671-3.198,14.86-3.83V267.415z M126.876,256.707l23.193,23.189v13.999l-31.304-31.304
	C121.294,260.414,124.001,258.438,126.876,256.707z M112.524,268.834l31.304,31.304h-13.999l-23.19-23.193
	C108.369,274.07,110.345,271.363,112.524,268.834z M102.488,285.278l14.858,14.86H98.658
	C99.29,294.948,100.595,289.965,102.488,285.278z M216.276,307.31c0,32.552-26.483,59.034-59.034,59.034
	c-31.997,0-58.111-25.592-58.993-57.379h56.234c0.289,0,0.578-0.03,0.863-0.087c0.143-0.029,0.276-0.081,0.414-0.122
	c0.137-0.041,0.275-0.072,0.407-0.127c0.174-0.072,0.333-0.168,0.495-0.262c0.087-0.05,0.179-0.086,0.263-0.142
	c0.488-0.324,0.907-0.744,1.231-1.231c0.056-0.084,0.093-0.175,0.142-0.263c0.093-0.162,0.189-0.321,0.262-0.495
	c0.055-0.132,0.085-0.271,0.127-0.407c0.042-0.138,0.094-0.27,0.122-0.414c0.056-0.285,0.087-0.574,0.087-0.863v-56.234
	C190.684,249.199,216.276,275.314,216.276,307.31z M48.552,198.621h48.552h52.966v41.209c-23.041,2.432-42.669,16.445-52.966,36.092
	c-3.87,7.383-6.429,15.555-7.342,24.216H48.552V198.621z"/>
<g>
	<polygon style="fill:#5F8CAF;" points="247.172,114.759 256,114.759 264.828,114.759 273.655,114.759 273.655,97.103 
		238.345,97.103 238.345,114.759 	"/>
	<polygon style="fill:#5F8CAF;" points="264.828,432.552 256,432.552 247.172,432.552 238.345,432.552 238.345,450.207 
		273.655,450.207 273.655,432.552 	"/>
</g>
<g>
	<path style="fill:#BEC8DC;" d="M397.241,167.724h44.138c4.875,0,8.828-3.953,8.828-8.828c0-4.875-3.953-8.828-8.828-8.828h-44.138
		c-4.875,0-8.828,3.953-8.828,8.828C388.414,163.772,392.366,167.724,397.241,167.724z"/>
	<path style="fill:#BEC8DC;" d="M308.966,158.895c0,4.875,3.953,8.828,8.828,8.828h17.655v-17.655h-17.655
		C312.918,150.068,308.966,154.02,308.966,158.895z"/>
	<path style="fill:#BEC8DC;" d="M308.966,194.207c0,4.875,3.953,8.828,8.828,8.828h17.655v-17.655h-17.655
		C312.918,185.379,308.966,189.332,308.966,194.207z"/>
	<path style="fill:#BEC8DC;" d="M450.207,194.207c0-4.875-3.953-8.828-8.828-8.828h-70.621v17.655h70.621
		C446.254,203.034,450.207,199.082,450.207,194.207z"/>
	<path style="fill:#BEC8DC;" d="M308.966,300.138c0,4.875,3.953,8.828,8.828,8.828h17.655V291.31h-17.655
		C312.918,291.31,308.966,295.263,308.966,300.138z"/>
	<path style="fill:#BEC8DC;" d="M450.207,300.138c0-4.875-3.953-8.828-8.828-8.828h-70.621v17.655h70.621
		C446.254,308.966,450.207,305.013,450.207,300.138z"/>
	<path style="fill:#BEC8DC;" d="M308.966,229.517c0,4.875,3.953,8.828,8.828,8.828h17.655V220.69h-17.655
		C312.918,220.69,308.966,224.642,308.966,229.517z"/>
	<path style="fill:#BEC8DC;" d="M450.207,229.517c0-4.875-3.953-8.828-8.828-8.828h-44.138c-4.875,0-8.828,3.953-8.828,8.828
		s3.953,8.828,8.828,8.828h44.138C446.254,238.345,450.207,234.392,450.207,229.517z"/>
	<path style="fill:#BEC8DC;" d="M308.966,264.828c0,4.875,3.953,8.828,8.828,8.828h17.655V256h-17.655
		C312.918,256,308.966,259.953,308.966,264.828z"/>
	<path style="fill:#BEC8DC;" d="M388.414,264.828c0-4.875-3.953-8.828-8.828-8.828h-8.828v17.655h8.828
		C384.461,273.655,388.414,269.703,388.414,264.828z"/>
	<path style="fill:#BEC8DC;" d="M441.379,256h-26.483c-4.875,0-8.828,3.953-8.828,8.828s3.953,8.828,8.828,8.828h26.483
		c4.875,0,8.828-3.953,8.828-8.828S446.254,256,441.379,256z"/>
	<path style="fill:#BEC8DC;" d="M441.379,326.621h-44.138c-4.875,0-8.828,3.953-8.828,8.828s3.953,8.828,8.828,8.828h44.138
		c4.875,0,8.828-3.953,8.828-8.828S446.254,326.621,441.379,326.621z"/>
</g>
<polygon style="fill:#707384;" points="353.103,326.621 370.759,326.621 370.759,308.966 370.759,291.31 370.759,273.655 
	370.759,256 370.759,203.034 370.759,185.379 370.759,114.759 370.759,97.103 370.759,79.448 353.103,79.448 "/>
<polygon style="fill:#464655;" points="335.448,150.068 335.448,167.723 335.448,185.379 335.448,203.034 335.448,220.69 
	335.448,238.345 335.448,256 335.448,273.655 335.448,291.31 335.448,308.966 335.448,326.621 353.103,326.621 353.103,79.448 
	335.448,79.448 335.448,97.103 335.448,114.759 "/>
<polygon style="fill:#FFF0BE;" points="360.165,353.103 353.103,370.759 370.759,326.621 353.103,326.621 353.103,353.103 "/>
<polygon style="fill:#FFDC9B;" points="346.041,353.103 353.103,353.103 353.103,326.621 335.448,326.621 353.103,370.759 "/>
<polygon style="fill:#464655;" points="353.103,353.103 346.041,353.103 353.103,370.759 360.165,353.103 "/>
<g>
	<path style="fill:#FFDC9B;" d="M370.467,68.407c0.11,0.427,0.2,0.862,0.246,1.312C370.667,69.269,370.578,68.833,370.467,68.407z"
		/>
	<path style="fill:#FFDC9B;" d="M370.282,67.778c-0.871-2.559-2.881-4.585-5.429-5.48C367.401,63.193,369.411,65.219,370.282,67.778
		z"/>
	<path style="fill:#FFDC9B;" d="M353.103,61.793h-8.828c-4.875,0-8.828,3.953-8.828,8.828v8.828h17.655V61.793z"/>
</g>
<path style="fill:#FFF0BE;" d="M370.759,79.448v-8.828c0-0.305-0.015-0.606-0.045-0.903c-0.045-0.449-0.135-0.885-0.246-1.312
	c-0.055-0.213-0.115-0.423-0.185-0.628c-0.871-2.559-2.881-4.585-5.429-5.48c-0.916-0.321-1.896-0.505-2.922-0.505h-8.828v17.655
	H370.759z"/>
<g>
</g>
<g>
</g>
<g>
</g>
<g>
</g>
<g>
</g>
<g>
</g>
<g>
</g>
<g>
</g>
<g>
</g>
<g>
</g>
<g>
</g>
<g>
</g>
<g>
</g>
<g>
</g>
<g>
</g>
</svg>
